REM DIRINDEX 1\2,1\3,1\4
REM DIRNAME cjc153,folder01,folder02,folder03
TITLE ""
FILE "Track37.mp3" MP3
  TRACK 01 AUDIO
    TITLE "0:"
    INDEX 01 00:00:00
  TRACK 02 AUDIO
    TITLE "4:cjc153_2331"
    INDEX 01 00:00:07
  TRACK 03 AUDIO
    TITLE "0:"
    INDEX 01 00:02:14
  TRACK 04 AUDIO
    TITLE "2:cjc153_2332"
    INDEX 01 00:02:65
  TRACK 05 AUDIO
    TITLE "0:"
    INDEX 01 00:04:23
  TRACK 06 AUDIO
    TITLE "3:cjc153_2333"
    INDEX 01 00:04:58
  TRACK 07 AUDIO
    TITLE "0:"
    INDEX 01 00:06:14
  TRACK 08 AUDIO
    TITLE "2:cjc153_2334"
    INDEX 01 00:06:61
  TRACK 09 AUDIO
    TITLE "0:"
    INDEX 01 00:08:07
  TRACK 10 AUDIO
    TITLE "3:cjc153_2335"
    INDEX 01 00:08:40
  TRACK 11 AUDIO
    TITLE "0:"
    INDEX 01 00:09:69
  TRACK 12 AUDIO
    TITLE "2:cjc153_2336"
    INDEX 01 00:10:37
  TRACK 13 AUDIO
    TITLE "0:"
    INDEX 01 00:12:09
  TRACK 14 AUDIO
    TITLE "3:cjc153_2337"
    INDEX 01 00:12:44
  TRACK 15 AUDIO
    TITLE "0:"
    INDEX 01 00:14:17
  TRACK 16 AUDIO
    TITLE "2:cjc153_2338"
    INDEX 01 00:14:60
  TRACK 17 AUDIO
    TITLE "0:"
    INDEX 01 00:16:06
  TRACK 18 AUDIO
    TITLE "3:cjc153_2339"
    INDEX 01 00:16:38
  TRACK 19 AUDIO
    TITLE "0:"
    INDEX 01 00:17:65
  TRACK 20 AUDIO
    TITLE "2:cjc153_2340"
    INDEX 01 00:18:35
  TRACK 21 AUDIO
    TITLE "0:"
    INDEX 01 00:19:69
  TRACK 22 AUDIO
    TITLE "3:cjc153_2341"
    INDEX 01 00:20:26
  TRACK 23 AUDIO
    TITLE "0:"
    INDEX 01 00:21:62
  TRACK 24 AUDIO
    TITLE "2:cjc153_2342"
    INDEX 01 00:22:30
  TRACK 25 AUDIO
    TITLE "0:"
    INDEX 01 00:23:42
  TRACK 26 AUDIO
    TITLE "3:cjc153_2343"
    INDEX 01 00:24:00
  TRACK 27 AUDIO
    TITLE "0:"
    INDEX 01 00:25:21
  TRACK 28 AUDIO
    TITLE "2:cjc153_2344"
    INDEX 01 00:25:60
  TRACK 29 AUDIO
    TITLE "0:"
    INDEX 01 00:26:71
  TRACK 30 AUDIO
    TITLE "3:cjc153_2345"
    INDEX 01 00:27:28
  TRACK 31 AUDIO
    TITLE "0:"
    INDEX 01 00:28:45
  TRACK 32 AUDIO
    TITLE "2:cjc153_2346"
    INDEX 01 00:29:15
  TRACK 33 AUDIO
    TITLE "0:"
    INDEX 01 00:30:34
  TRACK 34 AUDIO
    TITLE "3:cjc153_2347"
    INDEX 01 00:30:65
  TRACK 35 AUDIO
    TITLE "0:"
    INDEX 01 00:32:09
  TRACK 36 AUDIO
    TITLE "2:cjc153_2348"
    INDEX 01 00:32:52
  TRACK 37 AUDIO
    TITLE "0:"
    INDEX 01 00:34:12
  TRACK 38 AUDIO
    TITLE "3:cjc153_2349"
    INDEX 01 00:34:43
  TRACK 39 AUDIO
    TITLE "0:"
    INDEX 01 00:36:11
  TRACK 40 AUDIO
    TITLE "2:cjc153_2350"
    INDEX 01 00:36:58
  TRACK 41 AUDIO
    TITLE "0:"
    INDEX 01 00:37:61
  TRACK 42 AUDIO
    TITLE "3:cjc153_2351"
    INDEX 01 00:38:18
  TRACK 43 AUDIO
    TITLE "0:"
    INDEX 01 00:39:29
  TRACK 44 AUDIO
    TITLE "2:cjc153_2352"
    INDEX 01 00:39:72
  TRACK 45 AUDIO
    TITLE "0:"
    INDEX 01 00:41:12
  TRACK 46 AUDIO
    TITLE "3:cjc153_2353"
    INDEX 01 00:41:36
  TRACK 47 AUDIO
    TITLE "0:"
    INDEX 01 00:42:59
  TRACK 48 AUDIO
    TITLE "2:cjc153_2354"
    INDEX 01 00:43:31
  TRACK 49 AUDIO
    TITLE "0:"
    INDEX 01 00:44:56
  TRACK 50 AUDIO
    TITLE "3:cjc153_2355"
    INDEX 01 00:45:14
  TRACK 51 AUDIO
    TITLE "0:"
    INDEX 01 00:46:45
  TRACK 52 AUDIO
    TITLE "2:cjc153_2356"
    INDEX 01 00:47:15
  TRACK 53 AUDIO
    TITLE "0:"
    INDEX 01 00:48:34
  TRACK 54 AUDIO
    TITLE "3:cjc153_2357"
    INDEX 01 00:48:69
  TRACK 55 AUDIO
    TITLE "0:"
    INDEX 01 00:50:19
  TRACK 56 AUDIO
    TITLE "2:cjc153_2358"
    INDEX 01 00:50:62
  TRACK 57 AUDIO
    TITLE "0:"
    INDEX 01 00:52:20
  TRACK 58 AUDIO
    TITLE "3:cjc153_2359"
    INDEX 01 00:52:53
  TRACK 59 AUDIO
    TITLE "0:"
    INDEX 01 00:54:17
  TRACK 60 AUDIO
    TITLE "2:cjc153_2360"
    INDEX 01 00:54:64
  TRACK 61 AUDIO
    TITLE "0:"
    INDEX 01 00:56:06
  TRACK 62 AUDIO
    TITLE "3:cjc153_2361"
    INDEX 01 00:56:37
  TRACK 63 AUDIO
    TITLE "0:"
    INDEX 01 00:57:64
  TRACK 64 AUDIO
    TITLE "2:cjc153_2362"
    INDEX 01 00:58:32
  TRACK 65 AUDIO
    TITLE "0:"
    INDEX 01 00:59:61
  TRACK 66 AUDIO
    TITLE "3:cjc153_2363"
    INDEX 01 01:00:17
  TRACK 67 AUDIO
    TITLE "0:"
    INDEX 01 01:01:48
  TRACK 68 AUDIO
    TITLE "2:cjc153_2364"
    INDEX 01 01:02:20
  TRACK 69 AUDIO
    TITLE "0:"
    INDEX 01 01:03:53
  TRACK 70 AUDIO
    TITLE "3:cjc153_2365"
    INDEX 01 01:04:11
  TRACK 71 AUDIO
    TITLE "0:"
    INDEX 01 01:05:46
  TRACK 72 AUDIO
    TITLE "2:cjc153_2366"
    INDEX 01 01:06:12
  TRACK 73 AUDIO
    TITLE "0:"
    INDEX 01 01:07:17
  TRACK 74 AUDIO
    TITLE "3:cjc153_2367"
    INDEX 01 01:07:51
  TRACK 75 AUDIO
    TITLE "0:"
    INDEX 01 01:08:60
  TRACK 76 AUDIO
    TITLE "2:cjc153_2368"
    INDEX 01 01:09:30
  TRACK 77 AUDIO
    TITLE "0:"
    INDEX 01 01:10:39
  TRACK 78 AUDIO
    TITLE "3:cjc153_2369"
    INDEX 01 01:10:73
  TRACK 79 AUDIO
    TITLE "0:"
    INDEX 01 01:12:13
  TRACK 80 AUDIO
    TITLE "2:cjc153_2370"
    INDEX 01 01:12:56
  TRACK 81 AUDIO
    TITLE "0:"
    INDEX 01 01:13:73
  TRACK 82 AUDIO
    TITLE "3:cjc153_2371"
    INDEX 01 01:14:31
  TRACK 83 AUDIO
    TITLE "0:"
    INDEX 01 01:15:58
  TRACK 84 AUDIO
    TITLE "2:cjc153_2372"
    INDEX 01 01:16:28
  TRACK 85 AUDIO
    TITLE "0:"
    INDEX 01 01:17:41
  TRACK 86 AUDIO
    TITLE "3:cjc153_2373"
    INDEX 01 01:17:73
  TRACK 87 AUDIO
    TITLE "0:"
    INDEX 01 01:19:15
  TRACK 88 AUDIO
    TITLE "2:cjc153_2374"
    INDEX 01 01:19:60
  TRACK 89 AUDIO
    TITLE "0:"
    INDEX 01 01:20:73
  TRACK 90 AUDIO
    TITLE "3:cjc153_2375"
    INDEX 01 01:21:33
  TRACK 91 AUDIO
    TITLE "0:"
    INDEX 01 01:22:56
  TRACK 92 AUDIO
    TITLE "2:cjc153_2376"
    INDEX 01 01:23:26
  TRACK 93 AUDIO
    TITLE "0:"
    INDEX 01 01:24:24
  TRACK 94 AUDIO
    TITLE "3:cjc153_2377"
    INDEX 01 01:24:59
  TRACK 95 AUDIO
    TITLE "0:"
    INDEX 01 01:25:58
  TRACK 96 AUDIO
    TITLE "2:cjc153_2378"
    INDEX 01 01:26:29
  TRACK 97 AUDIO
    TITLE "0:"
    INDEX 01 01:27:36
  TRACK 98 AUDIO
    TITLE "3:cjc153_2379"
    INDEX 01 01:27:67
  TRACK 99 AUDIO
    TITLE "0:"
    INDEX 01 01:29:05
  TRACK 100 AUDIO
    TITLE "2:cjc153_2380"
    INDEX 01 01:29:50
  TRACK 101 AUDIO
    TITLE "0:"
    INDEX 01 01:30:60
  TRACK 102 AUDIO
    TITLE "3:cjc153_2381"
    INDEX 01 01:31:18
  TRACK 103 AUDIO
    TITLE "0:"
    INDEX 01 01:32:35
  TRACK 104 AUDIO
    TITLE "2:cjc153_2382"
    INDEX 01 01:33:05
  TRACK 105 AUDIO
    TITLE "0:"
    INDEX 01 01:33:74
  TRACK 106 AUDIO
    TITLE "3:cjc153_2383"
    INDEX 01 01:34:38
  TRACK 107 AUDIO
    TITLE "0:"
    INDEX 01 01:35:26
  TRACK 108 AUDIO
    TITLE "2:cjc153_2384"
    INDEX 01 01:36:17
  TRACK 109 AUDIO
    TITLE "0:"
    INDEX 01 01:37:17
  TRACK 110 AUDIO
    TITLE "3:cjc153_2385"
    INDEX 01 01:37:50
  TRACK 111 AUDIO
    TITLE "0:"
    INDEX 01 01:38:59
  TRACK 112 AUDIO
    TITLE "2:cjc153_2386"
    INDEX 01 01:39:27
  TRACK 113 AUDIO
    TITLE "0:"
    INDEX 01 01:40:11
  TRACK 114 AUDIO
    TITLE "3:cjc153_2387"
    INDEX 01 01:40:58
  TRACK 115 AUDIO
    TITLE "0:"
    INDEX 01 01:41:63
  TRACK 116 AUDIO
    TITLE "2:cjc153_2388"
    INDEX 01 01:42:35
  TRACK 117 AUDIO
    TITLE "0:"
    INDEX 01 01:43:43
  TRACK 118 AUDIO
    TITLE "3:cjc153_2389"
    INDEX 01 01:44:01
  TRACK 119 AUDIO
    TITLE "0:"
    INDEX 01 01:45:12
  TRACK 120 AUDIO
    TITLE "2:cjc153_2390"
    INDEX 01 01:45:55
  TRACK 121 AUDIO
    TITLE "0:"
    INDEX 01 01:46:61
  TRACK 122 AUDIO
    TITLE "3:cjc153_2391"
    INDEX 01 01:47:19
  TRACK 123 AUDIO
    TITLE "0:"
    INDEX 01 01:48:32
  TRACK 124 AUDIO
    TITLE "2:cjc153_2392"
    INDEX 01 01:49:00
  TRACK 125 AUDIO
    TITLE "0:"
    INDEX 01 01:50:04
  TRACK 126 AUDIO
    TITLE "3:cjc153_2393"
    INDEX 01 01:50:35
  TRACK 127 AUDIO
    TITLE "0:"
    INDEX 01 01:51:46
  TRACK 128 AUDIO
    TITLE "2:cjc153_2394"
    INDEX 01 01:52:16
  TRACK 129 AUDIO
    TITLE "0:"
    INDEX 01 01:53:12
  TRACK 130 AUDIO
    TITLE "3:cjc153_2395"
    INDEX 01 01:53:45
  TRACK 131 AUDIO
    TITLE "0:"
    INDEX 01 01:54:52
  TRACK 132 AUDIO
    TITLE "2:cjc153_2396"
    INDEX 01 01:55:20
  TRACK 133 AUDIO
    TITLE "0:"
    INDEX 01 01:56:24
  TRACK 134 AUDIO
    TITLE "3:cjc153_2397"
    INDEX 01 01:56:59
  TRACK 135 AUDIO
    TITLE "0:"
    INDEX 01 01:57:62
  TRACK 136 AUDIO
    TITLE "2:cjc153_2398"
    INDEX 01 01:58:32
  TRACK 137 AUDIO
    TITLE "0:"
    INDEX 01 01:59:42
  TRACK 138 AUDIO
    TITLE "3:cjc153_2399"
    INDEX 01 02:00:00
  TRACK 139 AUDIO
    TITLE "0:"
    INDEX 01 02:01:15
  TRACK 140 AUDIO
    TITLE "2:cjc153_2400"
    INDEX 01 02:01:60
  TRACK 141 AUDIO
    TITLE "0:"
    INDEX 01 02:02:67
  TRACK 142 AUDIO
    TITLE "3:cjc153_2401"
    INDEX 01 02:03:26
  TRACK 143 AUDIO
    TITLE "0:"
    INDEX 01 02:04:39
  TRACK 144 AUDIO
    TITLE "2:cjc153_2402"
    INDEX 01 02:05:09
  TRACK 145 AUDIO
    TITLE "0:"
    INDEX 01 02:05:74
  TRACK 146 AUDIO
    TITLE "3:cjc153_2403"
    INDEX 01 02:06:30
  TRACK 147 AUDIO
    TITLE "0:"
    INDEX 01 02:07:33
  TRACK 148 AUDIO
    TITLE "2:cjc153_2404"
    INDEX 01 02:08:03
  TRACK 149 AUDIO
    TITLE "0:"
    INDEX 01 02:09:05
  TRACK 150 AUDIO
    TITLE "3:cjc153_2405"
    INDEX 01 02:09:32
  TRACK 151 AUDIO
    TITLE "0:"
    INDEX 01 02:10:36
  TRACK 152 AUDIO
    TITLE "2:cjc153_2406"
    INDEX 01 02:11:06
  TRACK 153 AUDIO
    TITLE "0:"
    INDEX 01 02:12:40
  TRACK 154 AUDIO
    TITLE "3:cjc153_2407"
    INDEX 01 02:12:74
  TRACK 155 AUDIO
    TITLE "0:"
    INDEX 01 02:14:41
  TRACK 156 AUDIO
    TITLE "2:cjc153_2408"
    INDEX 01 02:15:11
  TRACK 157 AUDIO
    TITLE "0:"
    INDEX 01 02:16:30
  TRACK 158 AUDIO
    TITLE "3:cjc153_2409"
    INDEX 01 02:16:60
  TRACK 159 AUDIO
    TITLE "0:"
    INDEX 01 02:18:12
  TRACK 160 AUDIO
    TITLE "2:cjc153_2410"
    INDEX 01 02:18:55
  TRACK 161 AUDIO
    TITLE "0:"
    INDEX 01 02:19:66
  TRACK 162 AUDIO
    TITLE "3:cjc153_2411"
    INDEX 01 02:20:20
  TRACK 163 AUDIO
    TITLE "0:"
    INDEX 01 02:21:35
  TRACK 164 AUDIO
    TITLE "2:cjc153_2412"
    INDEX 01 02:22:06
  TRACK 165 AUDIO
    TITLE "0:"
    INDEX 01 02:23:11
  TRACK 166 AUDIO
    TITLE "3:cjc153_2413"
    INDEX 01 02:23:46
  TRACK 167 AUDIO
    TITLE "0:"
    INDEX 01 02:24:55
  TRACK 168 AUDIO
    TITLE "2:cjc153_2414"
    INDEX 01 02:25:25
  TRACK 169 AUDIO
    TITLE "0:"
    INDEX 01 02:26:41
  TRACK 170 AUDIO
    TITLE "3:cjc153_2415"
    INDEX 01 02:26:74
  TRACK 171 AUDIO
    TITLE "0:"
    INDEX 01 02:28:20
  TRACK 172 AUDIO
    TITLE "2:cjc153_2416"
    INDEX 01 02:28:65
  TRACK 173 AUDIO
    TITLE "0:"
    INDEX 01 02:29:60
  TRACK 174 AUDIO
    TITLE "3:cjc153_2417"
    INDEX 01 02:30:15
  TRACK 175 AUDIO
    TITLE "0:"
    INDEX 01 02:31:18
  TRACK 176 AUDIO
    TITLE "2:cjc153_2418"
    INDEX 01 02:31:63
  TRACK 177 AUDIO
    TITLE "0:"
    INDEX 01 02:32:55
  TRACK 178 AUDIO
    TITLE "3:cjc153_2419"
    INDEX 01 02:33:11
  TRACK 179 AUDIO
    TITLE "0:"
    INDEX 01 02:33:68
  TRACK 180 AUDIO
    TITLE "2:cjc153_2420"
    INDEX 01 02:34:58
  TRACK 181 AUDIO
    TITLE "0:"
    INDEX 01 02:35:71
  TRACK 182 AUDIO
    TITLE "3:cjc153_2421"
    INDEX 01 02:36:31
  TRACK 183 AUDIO
    TITLE "0:"
    INDEX 01 02:37:50
  TRACK 184 AUDIO
    TITLE "2:cjc153_2422"
    INDEX 01 02:38:20
  TRACK 185 AUDIO
    TITLE "0:"
    INDEX 01 02:39:20
  TRACK 186 AUDIO
    TITLE "3:cjc153_2423"
    INDEX 01 02:39:53
  TRACK 187 AUDIO
    TITLE "0:"
    INDEX 01 02:40:58
  TRACK 188 AUDIO
    TITLE "2:cjc153_2424"
    INDEX 01 02:41:26
  TRACK 189 AUDIO
    TITLE "0:"
    INDEX 01 02:42:28
  TRACK 190 AUDIO
    TITLE "3:cjc153_2425"
    INDEX 01 02:42:61
  TRACK 191 AUDIO
    TITLE "0:"
    INDEX 01 02:43:72
  TRACK 192 AUDIO
    TITLE "2:cjc153_2426"
    INDEX 01 02:44:42
  TRACK 193 AUDIO
    TITLE "0:"
    INDEX 01 02:45:56
  TRACK 194 AUDIO
    TITLE "3:cjc153_2427"
    INDEX 01 02:46:14
  TRACK 195 AUDIO
    TITLE "0:"
    INDEX 01 02:47:31
  TRACK 196 AUDIO
    TITLE "2:cjc153_2428"
    INDEX 01 02:48:01
  TRACK 197 AUDIO
    TITLE "0:"
    INDEX 01 02:49:20
  TRACK 198 AUDIO
    TITLE "3:cjc153_2429"
    INDEX 01 02:49:53
  TRACK 199 AUDIO
    TITLE "0:"
    INDEX 01 02:51:09
  TRACK 200 AUDIO
    TITLE "2:cjc153_2430"
    INDEX 01 02:51:52
  TRACK 201 AUDIO
    TITLE "0:"
    INDEX 01 02:52:56
  TRACK 202 AUDIO
    TITLE "3:cjc153_2431"
    INDEX 01 02:53:14
  TRACK 203 AUDIO
    TITLE "0:"
    INDEX 01 02:54:19
  TRACK 204 AUDIO
    TITLE "2:cjc153_2432"
    INDEX 01 02:54:62
  TRACK 205 AUDIO
    TITLE "0:"
    INDEX 01 02:56:04
  TRACK 206 AUDIO
    TITLE "3:cjc153_2433"
    INDEX 01 02:56:36
  TRACK 207 AUDIO
    TITLE "0:"
    INDEX 01 02:57:55
  TRACK 208 AUDIO
    TITLE "2:cjc153_2434"
    INDEX 01 02:58:25
  TRACK 209 AUDIO
    TITLE "0:"
    INDEX 01 02:59:26
  TRACK 210 AUDIO
    TITLE "3:cjc153_2435"
    INDEX 01 02:59:58
  TRACK 211 AUDIO
    TITLE "0:"
    INDEX 01 03:00:63
  TRACK 212 AUDIO
    TITLE "2:cjc153_2436"
    INDEX 01 03:01:37
  TRACK 213 AUDIO
    TITLE "0:"
    INDEX 01 03:02:54
  TRACK 214 AUDIO
    TITLE "3:cjc153_2437"
    INDEX 01 03:03:10
  TRACK 215 AUDIO
    TITLE "0:"
    INDEX 01 03:04:27
  TRACK 216 AUDIO
    TITLE "2:cjc153_2438"
    INDEX 01 03:04:74
  TRACK 217 AUDIO
    TITLE "0:"
    INDEX 01 03:06:28
  TRACK 218 AUDIO
    TITLE "3:cjc153_2439"
    INDEX 01 03:06:60
  TRACK 219 AUDIO
    TITLE "0:"
    INDEX 01 03:08:21
  TRACK 220 AUDIO
    TITLE "2:cjc153_2440"
    INDEX 01 03:08:66
  TRACK 221 AUDIO
    TITLE "0:"
    INDEX 01 03:10:18
  TRACK 222 AUDIO
    TITLE "3:cjc153_2441"
    INDEX 01 03:10:50
  TRACK 223 AUDIO
    TITLE "0:"
    INDEX 01 03:12:15
  TRACK 224 AUDIO
    TITLE "2:cjc153_2442"
    INDEX 01 03:12:58
  TRACK 225 AUDIO
    TITLE "0:"
    INDEX 01 03:13:60
  TRACK 226 AUDIO
    TITLE "3:cjc153_2443"
    INDEX 01 03:14:18
  TRACK 227 AUDIO
    TITLE "0:"
    INDEX 01 03:15:23
  TRACK 228 AUDIO
    TITLE "2:cjc153_2444"
    INDEX 01 03:15:68
  TRACK 229 AUDIO
    TITLE "0:"
    INDEX 01 03:17:07
  TRACK 230 AUDIO
    TITLE "3:cjc153_2445"
    INDEX 01 03:17:40
  TRACK 231 AUDIO
    TITLE "0:"
    INDEX 01 03:18:61
